<?xml version="1.0" encoding="utf-8" ?>
<svg xmlns="http://www.w3.org/2000/svg" xmlns:xlink="http://www.w3.org/1999/xlink" width="2800" height="2800">
	<defs>
		<linearGradient id="gradient_0" gradientUnits="userSpaceOnUse" x1="295.27164" y1="1247.3462" x2="1303.1102" y2="340.43854">
			<stop offset="0" stop-color="#090B0E"/>
			<stop offset="1" stop-color="#33373C"/>
		</linearGradient>
	</defs>
	<path fill="url(#gradient_0)" transform="matrix(1.75 0 0 1.75 -0.000488281 0)" d="M292.522 352.669C300.745 329.594 315.707 309.07 338.281 298.389L349.609 293.746C363.755 289.076 377.667 289.516 392.322 289.706C402.709 289.84 413.114 289.663 423.502 289.544C465.282 289.068 507.024 289.328 548.803 289.26C674.787 289.056 800.771 289.044 926.755 289.078C991.473 289.096 1056.19 289.119 1120.91 289.033C1143.22 289.004 1165.53 288.961 1187.84 288.98C1199.7 288.989 1211.73 288.596 1223.56 289.226C1236.1 289.893 1247.5 292.776 1258.75 298.314C1281.31 309.419 1299.52 330.757 1307.42 354.614C1310.61 364.246 1311.32 373.579 1311.59 383.698C1312.23 408.225 1311.63 432.899 1311.61 457.438C1311.59 500.227 1311.75 543.016 1311.76 585.805C1311.77 718.925 1311.75 852.044 1311.66 985.164C1311.62 1039.37 1311.74 1093.58 1311.7 1147.78C1311.69 1163.03 1311.69 1178.27 1311.63 1193.52C1311.6 1204.53 1312.07 1217.4 1309.64 1228.12C1304.04 1252.81 1289.28 1274.28 1267.93 1288.11C1260.19 1293.12 1252.14 1296.51 1243.47 1299.55C1234.94 1300.98 1225.8 1299.99 1217.12 1299.97C1198.34 1299.93 1179.56 1299.83 1160.77 1299.66C1099.5 1299.11 1038.25 1298.64 976.972 1298.61C840.313 1298.54 703.655 1298.57 566.997 1298.59C522.354 1298.6 477.711 1298.63 433.068 1298.65C410.827 1298.65 388.17 1299.56 365.968 1298.58C357.324 1298.2 347.935 1293.84 339.844 1290.86C337.607 1290.04 335.766 1289.39 333.866 1287.91C330.803 1285.52 327.328 1283.97 324.328 1281.45C312.296 1271.35 302.421 1255.88 297.068 1241.16L296.646 1239.97C294.185 1233.14 293.728 1226.1 291.649 1219.29C288.408 1208.67 293.423 1195.31 290.446 1184.77C288.525 1177.96 289.503 1169.06 289.508 1161.93C289.519 1147.84 289.568 1133.75 289.593 1119.66C289.699 1061.55 289.624 1003.39 290.401 945.312C290.885 909.146 290.111 872.883 290.246 836.706C290.622 735.801 290.472 634.891 290.488 533.984C290.494 495.482 290.483 456.982 290.53 418.479C290.552 399.85 289.622 380.682 290.643 362.109C290.817 358.945 291.769 355.735 292.522 352.669Z"/>
	<path fill="#07090B" transform="matrix(1.75 0 0 1.75 -0.000488281 0)" d="M503.793 1048.71C504.999 1048.37 505.751 1048.22 507.02 1048.32C508.587 1048.45 509.786 1048.31 511.328 1048.05C511.536 1047.02 511.656 1045 512.117 1044.14C513.932 1040.74 518.291 1039.8 519.148 1035.55C520.694 1034.3 522.071 1033.1 523.855 1032.21C525.523 1031.38 524.535 1031.96 526.172 1030.87C526.096 1029.08 526.23 1028.11 526.953 1026.47L527.451 1042.36L527.538 1055.52C519.568 1051.59 512.446 1050.19 503.793 1048.71Z"/>
	<path fill="#07090B" transform="matrix(1.75 0 0 1.75 -0.000488281 0)" d="M1127.1 1023.9C1129.89 1021.3 1132.74 1019.48 1136.2 1017.91L1136.11 1023.98L1135.88 1055.06C1128.55 1052.02 1121.34 1049.82 1113.41 1048.97L1113.63 1047.84C1114.83 1047.79 1115.84 1047.9 1117.01 1048.14L1118.36 1048.44L1119.54 1044.54L1119.93 1042.97C1120.65 1041.58 1121.73 1040.6 1122.13 1039.03L1122.66 1036.91L1123.05 1035.94L1121.88 1033.59L1121.49 1032.23C1119.65 1034 1116.82 1037.7 1114.39 1038.09L1127.1 1023.9Z"/>
	<path fill="#07090B" transform="matrix(1.75 0 0 1.75 -0.000488281 0)" d="M601.597 1142.89C599.034 1144.43 595.576 1144.43 592.672 1143.95L591.797 1143.75C590.962 1144.99 590.453 1145.5 589.059 1146.09C587.383 1146.8 588.319 1146 587.036 1147.28L586.328 1148.04C584.077 1145.26 583.992 1144.83 583.992 1141.41C584.737 1140.54 585.103 1140.21 586.206 1139.77L587.109 1139.46C586.492 1137.59 586.515 1134.97 586.515 1133L586.527 1132.03C586.075 1126.64 585.903 1120.34 586.432 1114.94L586.539 1112.96L586.527 1108.59C586.099 1102.99 587.175 1097.03 586.643 1091.6C586.322 1088.33 587.147 1072.94 586.336 1071.48C584.872 1068.85 582.34 1069.41 581.254 1065.62L580.867 1064.06C579.855 1062.11 580.086 1061.19 580.086 1058.98C578.594 1057.49 579.305 1052.26 579.305 1050C580.595 1048.7 580.083 1046.72 580.086 1044.92C578.784 1043.62 579.305 1041.65 579.305 1039.84C580.133 1038.86 580.52 1038.27 580.936 1037.02L581.254 1035.94C582.692 1034.98 582.228 1035.45 583.281 1034.13L583.984 1033.21L587.5 1033.21L588.09 1032.03C587.848 1030.06 588.201 1028.89 588.672 1027L589.153 1041.47L589.252 1042.16L603.475 1042.94C601.906 1043.25 600.258 1043.43 598.82 1044.14L598.039 1048.05L599.215 1047.85L600 1049.22L601.172 1049.62C597.377 1049.83 593.261 1049.75 589.561 1050.62C589.138 1051.06 588.483 1051.37 588.29 1051.95C588.013 1052.79 588.26 1055.26 588.252 1056.24C588.217 1060.56 588.187 1064.89 588.168 1069.21C588.065 1093.62 587.864 1118.08 588.354 1142.48C592.648 1142.53 597.374 1142.23 601.597 1142.89Z"/>
	<path fill="#BDBCBC" transform="matrix(1.75 0 0 1.75 -0.000488281 0)" d="M589.936 1017.89L613.01 1017.98L612.851 1043.04L603.475 1042.94L589.252 1042.16L589.936 1017.89Z"/>
	<path fill="#BDBCBC" transform="matrix(1.75 0 0 1.75 -0.000488281 0)" d="M764.865 1017.71L787.541 1017.91L787.54 1043.03L776.944 1042.97L764.949 1041.96L763.906 1039.96L764.865 1017.71Z"/>
	<path fill="#07090B" transform="matrix(1.75 0 0 1.75 -0.000488281 0)" d="M775.147 1143.03C772.881 1143.73 770.598 1143.4 768.352 1144.14L767.965 1146.09L767.57 1147.27L768.352 1148.05C767.279 1149.12 767.25 1148.98 766.793 1150.59L769.922 1148.44L771.187 1149.61C766.165 1151.93 764.334 1156.98 758.594 1158.2L757.812 1157.42L758.992 1156.64C760.799 1155.85 761.378 1156.02 763.086 1154.49L761.723 1153.9L761.336 1152.73C760.477 1151.3 760.555 1151.82 760.555 1150L761.328 1148.84L760.555 1148.05L758.203 1148.04L757.031 1146.29C755.16 1145.56 754.174 1144.76 752.742 1143.36C752.667 1140.74 752.241 1137.61 754.297 1135.55C755.883 1133.97 757.835 1132.37 759.521 1130.69L760.156 1130.09C760.165 1128.74 759.719 1128.42 758.771 1127.48L757.816 1126.56L757.43 1125C756.53 1123.22 756.648 1123.12 756.648 1121.09L757.422 1120.31C757.282 1118.24 757.573 1117.43 758.598 1115.63L761.719 1114.45C761.737 1108.84 761.632 1103.26 761.527 1097.66C761.479 1095.08 761.777 1092.71 760.938 1090.23C759.335 1089.77 758.947 1089.5 757.816 1088.28C755.915 1086.23 754.305 1084.83 754.305 1082.03C753.099 1080.22 753.266 1077.19 753.692 1075.05L753.91 1074.22L754.305 1072.66C755.156 1071.03 755.079 1071.33 755.086 1069.53C756.461 1068.14 755.864 1065.24 755.867 1063.28C756.969 1061.62 756.644 1060.53 756.648 1058.59L757.422 1057.81C757.449 1055.11 757.791 1051.91 757.257 1049.26L757.035 1048.43L756.648 1046.88C755.788 1045.24 755.867 1045.56 755.867 1043.75L756.641 1042.59C756.548 1039.71 756.585 1037.45 758.598 1035.16C759.343 1034.9 760.739 1034.18 761.523 1034.38L762.5 1034.77L762.695 1029.69L763.5 1030.08L763.906 1039.96L764.949 1041.96L776.944 1042.97L776.259 1043.23C774.097 1044.03 773.313 1043.89 771.094 1043.94L769.922 1044.15L770.695 1045.31C771.364 1046.54 771.575 1048.1 771.828 1049.46L772.688 1050.07L763.198 1050.13L763.403 1142.52L775.147 1143.03Z"/>
	<path fill="#07090B" transform="matrix(1.75 0 0 1.75 -0.000488281 0)" d="M894.09 1142.15L897.581 1143.31L897.266 1143.75L889.453 1143.75L889.473 1144.84C889.464 1147.55 888.456 1148.23 886.715 1150L885.156 1150.38C883.5 1151.22 883.858 1151.16 882.031 1151.16C880.365 1152.27 879.287 1151.95 877.344 1151.95C875.744 1153.01 875.298 1152.73 873.438 1152.73L872.266 1153.51C869.353 1153.44 867.077 1153.93 864.451 1155.24L858.594 1158.2L852.586 1160.79L851.562 1161.32L850.586 1160.54C849.158 1161.68 848.641 1161.32 846.875 1161.32L846.094 1160.55L844.531 1160.54L843.75 1159.77L842.188 1159.76C840.236 1158.46 836.768 1158.98 834.375 1158.98C832.607 1157.8 830.986 1158.2 828.906 1158.2C827.306 1159.26 826.861 1158.98 825 1158.98L824.219 1158.2L823.047 1158.98C821.913 1158.53 820.84 1158.21 819.643 1157.98L818.754 1157.81C818.478 1156.73 818.289 1156.01 818.512 1154.89L819.148 1151.95C818.169 1151.04 817.261 1150.31 816.703 1149.06L816.023 1147.27L815.242 1146.48C815.168 1144.02 814.682 1140.69 815.802 1138.44L816.41 1137.5C817.002 1136.2 816.955 1135.62 817.973 1134.38L819.531 1133.99C821.627 1132.93 820.734 1126.25 821.484 1123.64C821.515 1126.11 821.096 1128.92 822.374 1131.03L823.207 1141.73L894.09 1142.15Z"/>
	<path fill="#07090B" transform="matrix(1.75 0 0 1.75 -0.000488281 0)" d="M1145.93 1143.35L1140.82 1148.86L1140.62 1146.88C1141.29 1145.86 1141.66 1145.33 1142.75 1144.73L1143.55 1144.34C1138.94 1144.13 1138.22 1144.5 1134.38 1147.26L1132.81 1148.43L1131.64 1148.82C1130.42 1149.59 1129.95 1150.68 1128.49 1151.41C1126.88 1152.22 1127.81 1151.59 1126.49 1152.58L1125.78 1153.12C1123.85 1154.07 1122.99 1155.06 1121.48 1156.63L1117.58 1156.63C1116.25 1157.96 1113.97 1157.41 1112.11 1157.41L1111.33 1158.2C1109.42 1158.15 1107.96 1158.35 1106.13 1158.81L1105.47 1158.98L1104.3 1158.2C1102.53 1158.26 1100.77 1158.48 1099.22 1157.41C1098.07 1156.63 1097.75 1155.92 1096.32 1155.63C1093.59 1155.09 1091.93 1153.12 1089.07 1153.12C1088.02 1151.56 1088.67 1152.21 1087.12 1151.17C1085.08 1151.1 1083.07 1150.82 1081.25 1151.95L1080.08 1152.73L1079.69 1151.95L1078.12 1152.73L1076.95 1153.51L1074.22 1153.32L1072.66 1153.51C1071.38 1152.66 1071.83 1152.76 1070.56 1152.51L1067.58 1151.95L1066.41 1150C1065.65 1149.04 1064.94 1148.74 1064.41 1147.56L1064.07 1146.68L1063.29 1145.12L1062.9 1143.75C1062.12 1142.06 1062.12 1142.49 1062.12 1140.62C1063.73 1138.19 1062.4 1134.9 1063.29 1132.04L1063.68 1130.86L1062.9 1130.08L1063.68 1129.3C1062.8 1128.54 1062.48 1128.09 1061.94 1127.02C1061.14 1125.42 1061.56 1126.08 1060.53 1124.54L1058.99 1122.27C1058.28 1121.13 1057.74 1120.19 1056.87 1119.14C1054.2 1115.93 1054.3 1115.8 1054.3 1111.72C1055.58 1109.8 1054.5 1109.56 1055.09 1107.81C1055.12 1107.7 1056.57 1106.02 1056.64 1105.87C1057.17 1104.74 1056.65 1099.95 1056.65 1098.44L1055.87 1097.27L1057.82 1092.97L1058.21 1091.8C1060.48 1089.96 1060.9 1089.46 1063.87 1089.46C1063.62 1087.38 1063.71 1087.85 1064.84 1086.33L1064.46 1083.98L1065.62 1082.81L1066.67 1082.89C1063.48 1095.84 1063.85 1110.66 1070.8 1122.42C1076.51 1132.07 1085.93 1139.21 1096.82 1141.92C1105.85 1144.17 1114.03 1142.8 1122.72 1140.11C1124.95 1139.42 1127.71 1137.7 1129.67 1139.06L1130.34 1142.71C1134.75 1143.99 1141.25 1143.29 1145.93 1143.35Z"/>
	<path fill="#07090B" transform="matrix(1.75 0 0 1.75 -0.000488281 0)" d="M499.47 681.827L500.46 682.337C499.057 683.121 497.949 683.05 496.362 682.92L495.312 682.812C492.231 684.424 491.1 687.184 489.059 689.84C487.113 690.484 486.107 692.061 484.762 693.555L486.32 694.141C484.415 696.046 484.017 697.258 481.25 697.258C479.772 698.243 479.786 698.039 478.125 698.039L476.953 698.82C475.616 698.857 474.959 698.809 473.633 698.434L474.023 697.461L472.273 695.703C472.201 692.897 471.578 688.615 472.833 686.101C473.758 684.247 473.224 686.047 473.663 684.303L473.836 683.594C475.046 681.196 473.843 679.417 474.617 677.344C475.492 675.003 476.171 675.755 476.18 672.656C474.6 670.287 476.317 668.057 475.398 666.016C475.346 665.898 473.547 664.227 473.441 664.059C473.023 663.391 472.832 661.034 472.66 660.152C472.446 659.052 472.379 658.71 471.686 657.786L471.098 657.027L470.711 655.859L469.93 655.078C471.973 653.034 472.815 651.18 475.781 651.18L476.953 650.398C478.283 650.337 479.152 650.282 480.42 650.789L481.25 651.18C482.888 650.087 483.838 650.397 485.742 650.395L485.746 643.75L485.555 641.797C485.745 639.085 485.276 636.005 485.698 633.423C486.447 628.835 486.969 625.416 485.352 620.898L483.598 621.09C482.906 619.108 482.676 616.647 481.648 614.844C480.67 613.127 480.867 612.903 480.867 610.938C479.614 609.057 480.086 606.182 480.086 603.906C481.332 602.03 480.864 599.878 480.867 597.656C482.397 595.354 481.646 590.355 481.648 587.5L482.422 586.336C482.331 584.719 482.245 583.866 482.99 582.375C483.675 581.001 483.566 581.627 483.844 580.251C484.131 578.825 484.303 577.55 484.769 576.152L485.16 575.004L485.555 573.438C486.398 571.808 486.329 572.113 486.336 570.312C487.23 568.971 487.066 569.523 487.335 568.166L487.504 567.191C487.789 566.105 488.082 565.18 488.285 564.066C488.685 561.878 488.995 560.696 490.46 558.938L491.41 557.816C492.921 555.235 493.03 553.183 495.316 550.785C497.009 550.225 497.689 549.417 499.023 548.242L498.836 546.875L499.609 545.711L499.617 544.531L500.391 543.367C501.243 541.659 502.658 539.746 503.125 537.891C503.594 536.025 502.506 537.796 503.523 535.938L504.305 534.766L505.086 532.812C506.918 530.083 504.929 533.937 506.335 531.13L509.18 525.586L510.478 525.882C507.163 532.49 502.88 539.726 501.015 546.906C497.824 552.941 495.991 560.433 494.604 567.12C491.682 578.811 489.161 591.487 489.078 603.558L488.199 619.324L489.035 627.807C489.215 629.371 489.044 630.718 488.748 632.25L489.75 633.213C495.242 638.803 494.339 647.716 494.001 654.903C493.891 657.252 493.058 659.42 492.975 661.728C492.813 666.221 493.428 670.597 493.744 675.059C496.669 677.423 498.633 679.657 502.437 680.136L504.125 680.594L499.47 681.827Z"/>
	<path fill="#BDBCBC" transform="matrix(1.75 0 0 1.75 -0.000488281 0)" d="M488.199 619.324L489.035 627.807C489.215 629.371 489.044 630.718 488.748 632.25L489.75 633.213C495.242 638.803 494.339 647.716 494.001 654.903C493.891 657.252 493.058 659.42 492.975 661.728C492.813 666.221 493.428 670.597 493.744 675.059C496.669 677.423 498.633 679.657 502.437 680.136L504.125 680.594L499.47 681.827L487.786 682.14C486.034 673.087 486.756 663.398 486.877 654.199C487.028 642.709 486.74 630.7 488.199 619.324Z"/>
	<path fill="#07090B" transform="matrix(1.75 0 0 1.75 -0.000488281 0)" d="M1018.19 1142.47C1019.52 1143.65 1021.3 1143.28 1023.05 1143.35L1023.05 1144.05L1012.5 1143.75L1011.32 1143.36L1010.54 1145.31C1009.9 1146.43 1009.38 1146.73 1008.93 1148.07C1008.21 1150.24 1008.16 1150.56 1006.25 1151.95C1004.72 1153.05 1005.4 1152.28 1004.29 1153.66L1003.51 1154.69L1002.34 1156.25L1001.95 1157.42C1000.93 1158.09 1000.2 1158.59 998.985 1158.83L998.047 1158.98C995.485 1159.58 993.246 1159.66 990.625 1159.76L989.453 1160.54L986.719 1159.76L985.547 1160.54L983.594 1159.76L982.422 1160.54C978.984 1160.56 974.364 1161.17 971.098 1160.15L969.922 1159.76C967.682 1159.15 965.515 1158.44 963.285 1157.81L961.719 1157.41L960.555 1156.64C958.399 1156.69 957.41 1156.13 955.473 1155.46L953.906 1155.07C952.515 1154.36 951.601 1153.32 950.026 1152.92C948.858 1152.63 949.407 1152.84 948.098 1152.19L946.879 1151.56C945.647 1150.95 944.621 1150.5 943.534 1149.63L940.625 1147.26C939.362 1146.26 938.236 1145.3 937.117 1144.14L937.117 1142.58C935.492 1141.12 934.897 1140.41 934.379 1138.28L933.992 1136.72C933.015 1134.84 933.211 1134.16 933.211 1132.03L931.254 1128.9C930.596 1127.35 930.687 1126.79 929.523 1125.39C928.382 1124.02 928.64 1124.55 927.887 1123.04L926.18 1119.53L925.398 1118.36C925.321 1116.1 924.928 1113.14 925.958 1111.08L926.566 1110.16C927.425 1108.37 927.808 1108.07 929.297 1106.65L928.523 1105.86C928.556 1102.13 927.479 1096.51 928.854 1093.08L929.305 1092.19L931.648 1087.5L932.816 1085.16C933.503 1083.25 933.741 1082.85 935.16 1081.25L936.719 1080.87C938.862 1079.78 940.344 1080.08 942.773 1080.08C943.319 1078.96 943.834 1078 944.531 1076.95L945.034 1077.97C940.237 1090.89 937.331 1104.21 943.337 1117.3C948.097 1127.69 955.597 1136.07 966.505 1140.07C973.251 1142.55 980.35 1143.58 987.5 1142.71C992.182 1142.15 1004.69 1136.29 1007.78 1137.89L1008.68 1141.41C1011.37 1142.68 1015.23 1142.36 1018.19 1142.47Z"/>
	<path fill="#BDBCBC" transform="matrix(1.75 0 0 1.75 -0.000488281 0)" d="M772.688 1050.07L787.88 1050.01L787.55 1143.41C783.499 1143.22 779.177 1142.68 775.147 1143.03L763.403 1142.52L763.198 1050.13L772.688 1050.07Z"/>
	<path fill="#07090B" transform="matrix(1.75 0 0 1.75 -0.000488281 0)" d="M613.316 1073.33C614.175 1073.12 614.742 1072.46 615.394 1071.88L616.211 1071.13L616.406 1073.83C617.881 1072.85 617.877 1073.05 619.531 1073.05L620.703 1072.27C623.464 1072.35 627.762 1069.59 629.688 1067.59C630.649 1066.59 631.91 1065.48 632.812 1064.46L633.211 1063.67C634.879 1062.74 636.026 1061.72 637.5 1060.55L638.09 1060.16C638.351 1058.56 638.055 1058.58 637.305 1057.23L638.465 1056.96C642.52 1066.07 673.086 1141.28 674.649 1141.94C676.761 1142.82 679.865 1142.75 682.176 1142.93C680.671 1143.36 679.285 1143.53 677.734 1143.75C676.769 1144.64 676.071 1145.4 675.333 1146.51L674.602 1147.66L673.828 1148.82L673.897 1149.67C673.888 1151.99 672.209 1153.51 670.703 1155.07C669.464 1155.03 668.514 1154.99 667.31 1155.35C665.684 1155.84 667.153 1155.54 665.234 1155.85C664.566 1154.78 664.058 1153.96 663.68 1152.73L663.285 1151.37L662.898 1150.39C662.582 1149.33 662.471 1148.29 662.113 1147.21L661.723 1146.09C661.257 1144.72 661.595 1145.13 660.656 1144.19C659.287 1142.82 657.776 1141.71 657.035 1139.84L656.648 1138.67L655.867 1137.5C656.62 1136.37 656.817 1135.5 657.43 1134.38L658.203 1133.21L657.43 1130.86C656.633 1128.27 655.813 1127.61 653.91 1125.78C652.859 1125.59 652.415 1125.45 651.54 1124.8L650.785 1124.21C648.36 1122.99 646.697 1121.11 644.953 1118.97L644.148 1117.97L639.848 1113.28C637.414 1108.87 635.138 1109.32 631.718 1106.59C630.419 1105.55 630.142 1105.86 628.516 1105.85L625.391 1108.2C624.174 1106.98 623.531 1107.42 621.875 1107.41C620.127 1108.58 618.655 1108.2 616.602 1108.2L616.016 1110.54C615.102 1109.51 614.592 1109.19 613.273 1108.8L613.316 1073.33Z"/>
	<path fill="#BDBCBC" transform="matrix(1.75 0 0 1.75 -0.000488281 0)" d="M589.561 1050.62L613.016 1050.88L613.316 1073.33L613.273 1108.8L612.571 1143.22C608.991 1143.06 605.157 1142.58 601.597 1142.89C597.374 1142.23 592.648 1142.53 588.354 1142.48C587.864 1118.08 588.065 1093.62 588.168 1069.21C588.187 1064.89 588.217 1060.56 588.252 1056.24C588.26 1055.26 588.013 1052.79 588.29 1051.95C588.483 1051.37 589.138 1051.06 589.561 1050.62Z"/>
	<path fill="#07090B" transform="matrix(1.75 0 0 1.75 -0.000488281 0)" d="M544.718 1142.93C542.98 1143.65 542.458 1143.99 540.625 1143.75L539.453 1144.91L540.625 1146.48L541.912 1146.29C538.877 1150.05 534.358 1151.34 531.083 1154.88C529.931 1156.13 529.411 1156.89 527.734 1157.41L527.344 1155.86L523.047 1155.85C520.266 1156.09 519.408 1157.07 517.578 1158.98L515.234 1158.98L514.453 1159.76C512.526 1159.7 510.345 1159.42 508.526 1160.15L507.812 1160.54L506.836 1159.76L505.273 1160.15C504.203 1159.45 502.827 1159.76 501.562 1159.76C499.682 1161.01 496.807 1160.54 494.531 1160.54L493.555 1159.76C491.996 1161 490.233 1160.54 488.281 1160.54L487.5 1159.77L485.864 1159.81C482.463 1159.84 480.341 1158.08 478.002 1155.76L477.344 1155.08C475.907 1155.13 474.831 1155.23 473.462 1154.68L472.656 1154.3C471.225 1154.7 468.789 1155.05 467.578 1155.85C466.181 1156.78 466.62 1156.63 464.844 1156.63C463.068 1157.82 461.465 1157.41 459.375 1157.41L458.203 1158.2C456.093 1157.4 454.849 1156.89 453.91 1154.68C452.713 1151.88 449.671 1150.85 448.441 1148.43C447.457 1146.5 445.442 1143.07 445.05 1141.09L444.93 1140.23C443.659 1138.96 444.148 1137.3 444.148 1135.55L443.367 1134.77L443.367 1133.2C442.244 1132.08 442.586 1131.98 442.586 1130.47C440.992 1128.08 441.805 1122.52 441.805 1119.53C443.366 1117.95 442.425 1110.92 444.148 1107.81C445.033 1106.22 444.923 1106.45 444.93 1104.69C446.07 1103.54 445.701 1104.27 445.711 1102.34C444.787 1101.11 444.894 1100.9 443.359 1100.38L442.578 1101.16C441.396 1099.98 439.639 1100.22 437.898 1098.83L438.285 1097.85L439.258 1098.24C439.489 1096.69 439.906 1095.91 440.629 1094.54C442.383 1093.36 443.29 1091.7 444.899 1090.36C446.76 1088.81 449.178 1088.26 450.781 1086.34C452.8 1083.91 455.097 1081.08 457.812 1079.3L459.18 1078.52C459.727 1077.54 460.025 1076.8 460.303 1075.69L460.547 1074.62L461.45 1076.3C456.261 1090.42 454.578 1105.83 461.003 1119.92C465.456 1129.69 473.664 1135.89 483.588 1139.51C490.48 1142.03 498.207 1143.61 505.562 1142.82C510.591 1142.28 521.274 1136.58 525.507 1137.89L526.677 1141.8C532.299 1143.18 538.909 1142.72 544.718 1142.93Z"/>
	<path fill="#BDBCBC" transform="matrix(1.75 0 0 1.75 -0.000488281 0)" d="M710.402 1050.41L735.254 1050.09L693.549 1143.08C689.851 1142.97 685.84 1142.53 682.176 1142.93C679.865 1142.75 676.761 1142.82 674.649 1141.94C673.086 1141.28 642.52 1066.07 638.465 1056.96L636.615 1051.17C637.04 1050.8 637.36 1050.25 637.891 1050.07C639.298 1049.59 642.623 1050.06 644.32 1050.05C650.675 1050.03 657.03 1050.01 663.385 1049.99L684.291 1104.34C694.785 1087.53 701.747 1068.25 710.402 1050.41Z"/>
	<path fill="#BDBCBC" transform="matrix(1.75 0 0 1.75 -0.000488281 0)" d="M824.839 1049.83L911.576 1049.86C911.582 1056.84 911.735 1063.81 910.798 1070.75C899.84 1078.92 889.885 1088.43 879.811 1097.64C872.761 1104.09 864.889 1110.41 859.186 1118.1L912.343 1117.65L912.212 1142.75L894.09 1142.15L823.207 1141.73L822.374 1131.03L822.558 1120.42C826.264 1115.33 831.069 1110.91 835.527 1106.47L833.988 1106.05L841.774 1098.36L842.773 1097.46L842.191 1096.09C841.531 1094.36 840.734 1094.36 839.848 1092.96C838.406 1090.7 837.226 1088.82 834.62 1087.52L833.594 1087.1C831.862 1086.16 831.664 1086.33 829.688 1086.32C828.584 1087.23 827.978 1087.63 826.562 1087.88C825.174 1086.96 825.55 1087.43 824.738 1086.08L824.223 1085.15C821.77 1083.95 820.008 1082.57 817.848 1080.95L817.191 1080.46C816.613 1078.72 815.783 1078.22 814.461 1076.95L814.461 1075L813.285 1074.02L812.898 1073.05C811.97 1071.65 812.117 1072.09 812.117 1070.31C813.092 1068.85 812.892 1068.84 812.898 1067.19C813.624 1066.02 813.922 1065.68 815.187 1065.05C816.754 1064.26 816.127 1064.73 817.529 1063.61C819.047 1062.39 821.261 1063.08 823.246 1062.5C823.34 1060.86 823.478 1059.35 823.828 1057.74C823.849 1062.37 823.758 1066.96 824.596 1071.53L824.839 1049.83Z"/>
	<path fill="#07090B" transform="matrix(1.75 0 0 1.75 -0.000488281 0)" d="M835.527 1106.47L833.988 1106.05L841.774 1098.36L842.773 1097.46L842.191 1096.09C841.531 1094.36 840.734 1094.36 839.848 1092.96C838.406 1090.7 837.226 1088.82 834.62 1087.52L833.594 1087.1C831.862 1086.16 831.664 1086.33 829.688 1086.32C828.584 1087.23 827.978 1087.63 826.562 1087.88C825.174 1086.96 825.55 1087.43 824.738 1086.08L824.223 1085.15C821.77 1083.95 820.008 1082.57 817.848 1080.95L817.191 1080.46C816.613 1078.72 815.783 1078.22 814.461 1076.95L814.461 1075L813.285 1074.02L812.898 1073.05C811.97 1071.65 812.117 1072.09 812.117 1070.31C813.092 1068.85 812.892 1068.84 812.898 1067.19C813.624 1066.02 813.922 1065.68 815.187 1065.05C816.754 1064.26 816.127 1064.73 817.529 1063.61C819.047 1062.39 821.261 1063.08 823.246 1062.5C823.34 1060.86 823.478 1059.35 823.828 1057.74C823.849 1062.37 823.758 1066.96 824.596 1071.53C827.407 1073.99 833.28 1073.25 837.021 1073.21C848.017 1073.08 859.097 1073.05 870.075 1072.44L835.527 1106.47Z"/>
	<path fill="#BDBCBC" transform="matrix(1.75 0 0 1.75 -0.000488281 0)" d="M945.034 1077.97C953.142 1064.55 961.68 1054.2 977.637 1050.31C985.773 1048.32 1001.96 1048.03 1009.14 1052.41C1011.05 1053.58 1012.75 1054.96 1014.78 1055.96C1015.47 1054.08 1015.04 1052.71 1014.76 1050.78C1018.39 1048.46 1031.36 1049.74 1036.21 1049.66L1035.68 1143.14L1018.19 1142.47C1015.23 1142.36 1011.37 1142.68 1008.68 1141.41L1007.78 1137.89C1004.69 1136.29 992.182 1142.15 987.5 1142.71C980.35 1143.58 973.251 1142.55 966.505 1140.07C955.597 1136.07 948.097 1127.69 943.337 1117.3C937.331 1104.21 940.237 1090.89 945.034 1077.97Z"/>
	<path fill="#07090B" transform="matrix(1.75 0 0 1.75 -0.000488281 0)" d="M988.035 1072.89C992.576 1072.97 996.965 1073.44 1000.96 1075.81C1005.82 1078.7 1010.16 1084.49 1011.27 1090.08C1012.23 1094.91 1012.73 1106.46 1010 1110.55C1005.7 1117 996.726 1118.5 989.656 1119.72C984.131 1119.2 978.83 1118.12 974.098 1115.05C969.269 1111.92 965.954 1107.16 964.898 1101.5C963.807 1095.65 965.197 1088.75 968.846 1083.98C973.789 1077.53 980.133 1074.24 988.035 1072.89Z"/>
	<path fill="#BDBCBC" transform="matrix(1.75 0 0 1.75 -0.000488281 0)" d="M1136.2 1017.91C1143.78 1017.1 1151.98 1016.84 1159.57 1017.79C1160.44 1044.09 1159.72 1070.54 1159.56 1096.86C1159.46 1111.76 1160.74 1128.24 1158.78 1142.95C1150.12 1142.39 1138.85 1141.08 1130.34 1142.71L1129.67 1139.06C1127.71 1137.7 1124.95 1139.42 1122.72 1140.11C1114.03 1142.8 1105.85 1144.17 1096.82 1141.92C1085.93 1139.21 1076.51 1132.07 1070.8 1122.42C1063.85 1110.66 1063.48 1095.84 1066.67 1082.89L1068 1080.08C1070.82 1073.6 1074.56 1067.88 1079.34 1062.66C1088.88 1052.25 1099.83 1049.46 1113.41 1048.97C1121.34 1049.82 1128.55 1052.02 1135.88 1055.06L1136.11 1023.98L1136.2 1017.91Z"/>
	<path fill="#07090B" transform="matrix(1.75 0 0 1.75 -0.000488281 0)" d="M1110.62 1072.04C1117.21 1071.6 1123.9 1071.31 1129.69 1075.02C1133.92 1077.73 1136.16 1082.4 1136.95 1087.22C1138.15 1094.44 1137.16 1106.45 1132.7 1112.32C1128.77 1117.52 1122.91 1118.86 1116.82 1119.66C1111.83 1119.65 1106.58 1119.22 1101.96 1117.17C1096.05 1114.55 1091.21 1109.12 1089.24 1102.93C1087.37 1097.09 1088.81 1090.13 1091.8 1084.89C1095.93 1077.64 1102.99 1074.34 1110.62 1072.04Z"/>
	<path fill="#BDBCBC" transform="matrix(1.75 0 0 1.75 -0.000488281 0)" d="M527.51 1022.38C527.732 1020.66 528.024 1019.66 528.91 1018.17L551.959 1017.39C553.698 1032.39 552.466 1048.78 552.477 1063.93C552.495 1089.86 552.96 1115.88 552.304 1141.8L551.172 1143.09L544.718 1142.93C538.909 1142.72 532.299 1143.18 526.677 1141.8L525.507 1137.89C521.274 1136.58 510.591 1142.28 505.562 1142.82C498.207 1143.61 490.48 1142.03 483.588 1139.51C473.664 1135.89 465.456 1129.69 461.003 1119.92C454.578 1105.83 456.261 1090.42 461.45 1076.3L467.332 1066.41C473.303 1057.77 481.363 1052.38 491.683 1050.28C495.328 1049.53 499.039 1049.65 502.653 1048.94L503.793 1048.71C512.446 1050.19 519.568 1051.59 527.538 1055.52L527.451 1042.36C528.439 1036.49 528.551 1028.2 527.51 1022.38Z"/>
	<path fill="#BDBCBC" transform="matrix(1.75 0 0 1.75 -0.000488281 0)" d="M527.51 1022.38C527.732 1020.66 528.024 1019.66 528.91 1018.17L551.959 1017.39C551.804 1019.94 551.839 1022.7 551.172 1025.16L549.95 1024.82C545.691 1023.82 540.777 1023.32 536.408 1023.1C533.742 1022.97 529.868 1023.58 527.51 1022.38Z"/>
	<path fill="#07090B" transform="matrix(1.75 0 0 1.75 -0.000488281 0)" d="M505.845 1072.17C509.83 1072.34 513.749 1072.5 517.471 1074.11C522.628 1076.35 526.559 1081.23 528.197 1086.56C529.685 1091.4 529.733 1107.45 526.842 1111.79C522.97 1117.6 511.285 1119.21 504.797 1119.74C499.384 1119.16 494.637 1118.08 490.098 1114.87C485.534 1111.65 482.509 1106.48 481.757 1100.94C480.953 1095.03 482.385 1087.11 486.096 1082.32C491.182 1075.77 497.887 1073.18 505.845 1072.17Z"/>
	<path fill="#07090B" transform="matrix(1.75 0 0 1.75 -0.000488281 0)" d="M1055.34 927.021L1055.85 928.516L1054.69 929.098C1053.52 929.595 1053.23 929.519 1052.24 930.504L1051.56 931.246C1049.06 931.672 1047.58 933.599 1045.31 934.371C1043.78 934.891 1042.86 934.958 1041.41 935.938C1039.92 936.941 1040.92 936.637 1039.06 937.496C1036.26 938.786 1039.45 936.933 1036.83 938.499L1035.93 939.059C1034.68 939.063 1033.92 939.215 1032.81 939.844C1031.12 940.804 1032.27 940.534 1030.59 940.869L1029.69 941.016L1030.86 941.023L1031.63 942.188L1030.86 943.352L1029.3 942.969L1028.52 944.133L1027.54 943.355L1025 946.09C1024.71 947.561 1024.12 948.674 1023.43 949.996C1019.24 951.383 1015.03 953.087 1010.93 954.684C1009.63 955.193 1008.24 956.157 1007 956.464L1006.25 956.633C1004.33 957.578 1003.72 957.414 1001.56 957.414C999.963 958.481 999.517 958.195 997.656 958.195L996.484 958.977C995.322 958.949 994.262 958.918 993.113 959.15L992.184 959.371C991.068 959.608 990.717 959.688 989.734 960.346L988.867 960.934C986.471 961.979 988.416 960.568 986.56 962.052C985.636 962.792 984.693 963.584 983.59 964.059C981.796 964.829 981.461 965.344 980.078 966.789L979.688 966.016C977.402 967.524 973.807 966.435 971.074 966.986L969.727 967.184L968.75 966.789L967.578 967.57C965.225 967.61 963.568 967.547 961.308 966.793L960.16 966.402L958.594 966.008L957.43 965.234C956.012 965.254 954.623 965.335 953.224 965.057L952.348 964.84L950.781 964.445C948.283 963.136 945.064 963.667 942.188 963.664C940.71 964.649 940.723 964.445 939.062 964.445C937.067 965.775 933.322 965.227 930.859 965.227L929.688 966.008L928.32 965.23L927.539 965.621L926.172 965.227L925 966.008L924.023 965.23C922.437 967.005 921.016 968.444 919.141 969.914L918.75 969.141L916.797 970.695L916.211 969.918C914.742 971.087 913.541 970.695 911.719 970.695C909.73 969.374 907.828 970.198 905.544 969.745L902.734 969.133C899.883 968.909 895.809 968.746 893.034 969.306C892.34 969.446 890.805 969.614 890.234 969.914C889.484 970.308 889.535 971.304 888.477 971.09L887.109 970.695L886.715 971.871L883.594 973.039C880.262 974.569 875.536 973.873 871.875 973.82L870.898 973.043L869.531 973.82C867.873 972.719 866.777 973.043 864.844 973.039C862.97 971.794 860.08 972.261 857.812 972.258C856.044 971.083 854.424 971.48 852.344 971.477L851.172 972.258L850.586 971.48L849.219 972.258C846.851 970.685 842.101 971.794 839.092 971.2C836.977 970.783 834.962 970.749 832.812 970.695C830.942 969.453 828.78 969.81 826.562 969.723L825.586 970.309L824.805 969.727L823.633 969.918L822.852 970.309L821.484 969.914C819.988 971.41 818.746 970.309 816.797 972.258L816.016 971.477L814.453 973.039L813.672 972.258L812.109 973.82C810.46 973.744 809.281 973.737 807.812 974.602L806.641 975.383C804.749 975.447 803.263 975.623 801.562 974.602C799.645 973.45 798.322 972.464 796.098 971.871C794.625 971.478 793.557 971.048 792.191 970.309C790.107 969.179 789.039 968.943 786.719 968.75L785.742 969.527L784.961 968.945L783.398 970.309L782.617 969.727L781.641 970.695C780.736 970.868 779.295 971.01 778.516 971.477L777.734 972.258C777.206 972.228 776.276 972.146 775.781 972.258C775.097 972.413 774.518 972.915 773.828 973.039C771.012 973.544 766.273 973.301 763.869 971.922L762.504 971.09C760.294 969.855 760.2 969.911 757.812 970.504L757.031 969.922C755.014 969.892 752.804 969.687 750.822 970.087L749.996 970.309L748.438 970.695C746.602 971.659 746.24 971.477 744.141 971.477L743.359 972.258L741.797 972.258C740.271 973.784 734.384 973.039 732.031 973.039C729.563 971.399 723.426 972.26 720.312 972.258L719.141 973.039C718.612 973.009 717.682 972.927 717.188 973.039C713.216 973.941 708.055 974.546 703.906 973.82L702.539 973.434L701.367 973.434C700.251 972.697 698.229 973.042 696.875 973.039C694.52 971.474 687.097 972.26 683.984 972.258L683.203 973.039C681.77 973.039 680.238 973.208 678.906 973.82L677.734 974.602L676.953 973.82L675.391 975.383L674.805 974.605L673.242 974.996L672.656 974.609C671.634 974.634 670.74 974.633 669.729 974.432L666.797 973.82C665.693 973.605 664.738 973.431 663.672 973.039C661.677 972.306 659.917 972.319 657.812 972.258C653.528 969.411 644.486 972.869 639.722 972.091L638.672 971.875L637.891 973.039L636.328 972.656L635.547 973.82L634.766 973.039L633.398 974.215L632.617 973.633L630.859 974.602L628.516 973.82L627.344 974.602L626.562 973.828L625.391 974.602C623.206 974.564 621.44 974.476 619.395 975.387L618.555 975.777C617.198 976.255 616.15 976.792 614.84 977.34L611.719 978.508L610.742 977.73L609.375 978.508C606.649 976.697 601.782 978.217 598.46 977.558C593.959 976.665 592.074 973.052 587.5 973.039L586.328 973.82C583.314 973.847 579.441 974.325 576.566 973.434L575.391 973.039C573.241 972.481 571.793 972.061 569.93 970.703L566.821 968.351L565.625 967.57C563.837 966.372 562.095 965.029 559.938 964.594C556.575 963.916 553.449 963.055 550.368 961.518L549.223 960.934C546.134 959.631 544.171 956.283 541.53 954.169C539.482 952.528 537.175 951.314 535.156 949.602C534.113 948.717 533.324 947.725 531.96 947.382L531.25 947.258L530.086 946.484C528.695 946.6 528.22 946.56 526.93 945.917L525.785 945.309C524.714 944.872 524.436 945.095 523.415 944.33L522.66 943.746L521.484 943.352C519.538 942.225 516.613 938.765 516.168 936.521L515.242 932.031L514.461 930.859C514.584 929.466 514.546 928.979 513.897 927.683L513.285 926.559C512.481 924.713 513.489 925.957 511.945 924.413L510.941 923.434C509.791 922.047 509.247 921.459 507.816 920.309L506.648 915.625L507.426 914.648C505.955 912.8 506.648 908.305 506.648 905.859C504.823 904.034 506.399 898.506 505.469 895.695L504.305 894.922L504.102 892.383L503.906 895.703L502.742 895.703L502.742 874.219L503.906 873.246C505.575 874.49 504.173 884.423 505.086 887.109C505.726 885.502 506.031 884.137 506.25 882.422L505.086 881.641L506.641 879.305L505.473 878.902L505.473 878.129C505.733 875.752 506.991 875.048 508.598 873.441L509.766 873.438C510.313 871.541 511.164 870.896 512.504 869.535C514.16 868.987 513.987 868.624 514.848 867.191C515.879 866.778 516.45 866.535 517.59 866.666L518.359 866.805C519.134 865.006 519.087 863.249 519.148 861.328C518.103 860.283 518.254 859.986 517.973 858.59C516.501 858.303 515.388 857.717 514.066 857.027L513.68 855.078C515.029 853.829 516.258 852.773 517.096 851.101L517.586 850C518.231 848.896 518.707 848.63 519.144 847.319C519.668 845.746 519.35 846.42 520.099 844.924L521.879 841.41L523.055 839.062C523.439 838.032 523.336 837.634 523.836 836.719L525.785 833.598C526.189 832.637 526.004 832.206 526.691 831.289C528.1 829.408 529.35 828.006 529.938 825.674C530.226 824.53 531.012 824.07 531.836 823.242C531.642 821.826 531.464 821.884 532.035 820.508L532.621 819.531L532.816 818.164L533.402 817.188L533.598 815.82L534.184 814.844L534.379 813.285L534.965 812.5L535.16 810.941L535.746 810.156C536.052 807.713 537.109 806.043 538.281 803.906L539.4 804.033C536.477 812.112 533.419 820.371 531.678 828.803C526.712 852.86 529.658 879.068 540.079 901.279C548.505 919.24 566.471 935.491 585.156 942.34C595.645 946.184 607.552 948.332 618.679 948.996C654.085 951.108 690.015 949.891 725.493 949.783C774.829 949.632 824.166 949.998 873.505 949.891C895.479 949.843 917.451 949.826 939.425 949.919C951.076 949.968 965.271 951.404 976.598 949.302C1005.72 949.411 1030.08 940.764 1055.34 927.021Z"/>
	<defs>
		<linearGradient id="gradient_1" gradientUnits="userSpaceOnUse" x1="643.70935" y1="843.71521" x2="1022.8337" y2="508.29089">
			<stop offset="0" stop-color="#B4B3B3"/>
			<stop offset="1" stop-color="#D5D4D4"/>
		</linearGradient>
	</defs>
	<path fill="url(#gradient_1)" transform="matrix(1.75 0 0 1.75 -0.000488281 0)" d="M521.426 509.228C539.828 481.537 572.252 460.832 604.699 454.461C624.108 450.65 644.656 451.606 664.355 451.592C687.335 451.576 710.315 451.569 733.295 451.559C765.468 451.545 797.642 451.497 829.815 451.592C856.992 451.673 884.597 450.639 911.403 455.721C940.657 461.267 969.992 474.141 994.539 490.879C1010.51 501.768 1024.63 513.812 1038.67 527.023C1062.45 549.39 1083.08 573.399 1098.54 602.382C1111.76 627.148 1120.76 654.788 1125.92 682.349C1132.84 719.385 1131.98 759.135 1126.14 796.268C1122.48 819.57 1117.11 841.851 1107.2 863.347C1103.37 871.656 1099.5 879.867 1094.29 887.412C1088.97 895.1 1082.68 903.507 1075.97 910.018C1069.53 916.272 1062.38 921.499 1055.34 927.021C1030.08 940.764 1005.72 949.411 976.598 949.302C965.271 951.404 951.076 949.968 939.425 949.919C917.451 949.826 895.479 949.843 873.505 949.891C824.166 949.998 774.829 949.632 725.493 949.783C690.015 949.891 654.085 951.108 618.679 948.996C607.552 948.332 595.645 946.184 585.156 942.34C566.471 935.491 548.505 919.24 540.079 901.279C529.658 879.068 526.712 852.86 531.678 828.803C533.419 820.371 536.477 812.112 539.4 804.033C542.707 799.779 544.926 793.086 547.756 788.282C558.91 769.349 579.918 745.178 602.036 739.432L603.369 738.105L602.344 737.5C604.541 736.035 607.404 734.76 609.89 733.826L610.547 733.594L610.555 732.031C609.525 730.486 609.796 730.626 609.965 728.906L608.992 727.734C609.047 724.508 608.65 722.541 607.43 719.531C605.705 718.66 603.871 716.222 602.348 714.84L601.961 713.672L601.18 712.891L601.953 712.117C600.491 711.813 601.282 711.783 599.609 712.5L598.242 715.621L597.66 715.621L597.273 714.453C597.65 712.556 599.151 710.447 601.172 709.773C601.375 709.706 603.35 709.842 603.516 709.773C605.012 709.152 606.871 706.117 608.602 705.077L609.379 704.691L609.773 703.125L610.547 702.344L610.555 700.781C611.805 698.899 612.001 698.277 612.504 696.289L612.898 695.312L612.117 694.141C612.144 692.984 612.174 691.936 611.944 690.794L611.336 687.891L610.555 687.109L610.551 685.352C610.275 684.22 610.161 683.657 610.156 682.422L608.992 681.641L608.992 678.516C607.706 677.462 607.451 676.589 607.035 674.996L606.648 673.438C605.77 671.744 604.67 670.362 603.91 668.555C604.647 667.438 604.302 665.416 604.305 664.062L605.473 662.695L605.867 661.719C607.078 659.802 607.889 659.203 610.036 658.771L610.941 658.598L611.969 655.324L612.117 654.688L612.891 653.906C612.897 651.894 612.908 650.772 611.336 649.219C610.106 648.004 609.977 648.417 609.379 646.68C608.591 644.388 609.949 642.642 610.941 640.629L612.117 638.281L612.891 637.5C612.937 633.423 613.328 630.294 611.336 626.562L610.547 626.562C609.601 624.629 608.7 623.508 607.43 621.875C606.1 620.165 606.648 616.282 606.648 614.062C607.299 613.27 607.758 612.771 608.014 611.758C608.299 610.626 608.758 609.783 609.379 608.789C610.422 607.12 611.568 605.677 611.969 603.688L612.898 598.828C611.474 597.404 612.167 596.113 611.336 594.531C610.281 592.522 610.555 591.345 610.555 589.062C611.656 587.404 611.332 586.308 611.336 584.375L612.113 583.398L611.723 581.836C610.782 579.784 611.06 581.223 610.724 579.527C610.506 578.428 610.389 576.307 609.773 575.391C608.531 573.54 604.96 571.798 603.25 570.088C601.869 568.707 601.961 568.191 601.961 566.406C603.018 564.816 602.737 564.35 602.742 562.5L603.516 561.719L602.934 560.156C601.626 558.155 601.961 557.475 601.961 555.078C599.438 552.555 598.073 550.621 594.531 549.602L593.75 548.828L592.188 548.82C590.933 547.782 589.734 546.849 588.285 546.09C586.064 544.926 584.292 543.371 582.227 542.184C579.902 540.847 582.7 542.972 580.216 540.987C578.943 539.969 578.904 540.233 577.344 540.227L576.18 539.453C574.024 539.363 571.706 539.016 569.724 540.009C568.032 540.856 569.498 540.492 567.747 540.839C566.401 541.106 567.11 540.858 565.698 541.423L564.844 541.789L563.867 541.012C562.439 542.149 561.922 541.789 560.156 541.789C558.884 540.53 557.976 541.012 556.25 541.008C553.18 543.054 546.796 541.211 542.949 541.986C541.925 542.193 541.829 542.25 540.784 541.988L540.039 541.793L539.258 542.184L537.695 541.602L536.914 542.184C535.996 542.184 535.564 542.04 534.766 542.57C533.175 543.627 532.643 543.353 530.664 543.355L528.906 546.875L526.562 551.562L525.487 551.472C516.932 566.344 514.981 586.653 512.557 603.341C511.813 618.491 511.409 633.661 511.877 648.828C512.126 656.885 513.738 666.335 513.057 674.219C512.914 675.87 512.856 676.244 511.71 677.357C509.207 678.887 506.925 679.743 504.125 680.594L502.437 680.136C498.633 679.657 496.669 677.423 493.744 675.059C493.428 670.597 492.813 666.221 492.975 661.728C493.058 659.42 493.891 657.252 494.001 654.903C494.339 647.716 495.242 638.803 489.75 633.213L488.748 632.25C489.044 630.718 489.215 629.371 489.035 627.807L488.199 619.324L489.078 603.558C489.161 591.487 491.682 578.811 494.604 567.12C495.991 560.433 497.824 552.941 501.015 546.906C502.88 539.726 507.163 532.49 510.478 525.882C514.552 520.803 517.166 514.464 521.426 509.228Z"/>
	<path fill="#BDBCBC" transform="matrix(1.75 0 0 1.75 -0.000488281 0)" d="M494.604 567.12C494.74 570.132 494.666 573.274 495.414 576.198C495.757 577.54 495.602 578.269 495.346 579.6C495.016 581.313 494.975 583.091 494.87 584.83C494.755 586.72 494.472 587.594 493.353 589.114C493.304 590.4 493.529 592.575 493.176 593.745C492.856 594.805 491.319 595.866 490.997 596.927C489.998 600.209 491.646 600.213 489.078 603.558C489.161 591.487 491.682 578.811 494.604 567.12Z"/>
	<path fill="#BDBCBC" transform="matrix(1.75 0 0 1.75 -0.000488281 0)" d="M803.654 767.642C805.597 767.524 806.571 767.005 808.133 768.331C811.474 771.167 813.901 776.095 816.433 779.688C821.314 786.612 826.576 793.021 830.852 800.391L829.775 804.106L803.654 767.642Z"/>
	<path fill="#BDBCBC" transform="matrix(1.75 0 0 1.75 -0.000488281 0)" d="M510.478 525.882C514.552 520.803 517.166 514.464 521.426 509.228C521.197 511.248 520.811 512.516 520.152 514.443C519.829 515.389 519.856 516.182 519.813 517.167C519.724 519.242 519.139 519.949 518.058 521.632C517.057 523.191 516.997 525.092 516.445 526.839C515.071 531.186 513.335 535.291 509.71 538.056C508.451 539.016 507.464 540.134 506.124 541.052C504.581 542.108 503.99 543.168 503.044 544.733C502.481 545.666 501.869 546.242 501.015 546.906C502.88 539.726 507.163 532.49 510.478 525.882Z"/>
	<path fill="#F9F9FB" transform="matrix(1.75 0 0 1.75 -0.000488281 0)" d="M511.71 677.357C510.465 677.135 510.037 676.975 508.984 676.38C506.957 668.486 507.187 659.173 506.925 651.038C506.4 634.732 505.05 614.808 508.906 598.828C510.338 597.509 510.023 597.336 512.109 597.258L512.557 603.341C511.813 618.491 511.409 633.661 511.877 648.828C512.126 656.885 513.738 666.335 513.057 674.219C512.914 675.87 512.856 676.244 511.71 677.357Z"/>
	<path fill="#07090B" transform="matrix(1.75 0 0 1.75 -0.000488281 0)" d="M525.487 551.472C532.948 532.114 549.642 512 568.735 503.571C586.737 495.624 607.37 496.039 625.989 501.652L626.472 726C620.652 730.707 610.625 736.233 603.369 738.105L602.344 737.5C604.541 736.035 607.404 734.76 609.89 733.826L610.547 733.594L610.555 732.031C609.525 730.486 609.796 730.626 609.965 728.906L608.992 727.734C609.047 724.508 608.65 722.541 607.43 719.531C605.705 718.66 603.871 716.222 602.348 714.84L601.961 713.672L601.18 712.891L601.953 712.117C600.491 711.813 601.282 711.783 599.609 712.5L598.242 715.621L597.66 715.621L597.273 714.453C597.65 712.556 599.151 710.447 601.172 709.773C601.375 709.706 603.35 709.842 603.516 709.773C605.012 709.152 606.871 706.117 608.602 705.077L609.379 704.691L609.773 703.125L610.547 702.344L610.555 700.781C611.805 698.899 612.001 698.277 612.504 696.289L612.898 695.312L612.117 694.141C612.144 692.984 612.174 691.936 611.944 690.794L611.336 687.891L610.555 687.109L610.551 685.352C610.275 684.22 610.161 683.657 610.156 682.422L608.992 681.641L608.992 678.516C607.706 677.462 607.451 676.589 607.035 674.996L606.648 673.438C605.77 671.744 604.67 670.362 603.91 668.555C604.647 667.438 604.302 665.416 604.305 664.062L605.473 662.695L605.867 661.719C607.078 659.802 607.889 659.203 610.036 658.771L610.941 658.598L611.969 655.324L612.117 654.688L612.891 653.906C612.897 651.894 612.908 650.772 611.336 649.219C610.106 648.004 609.977 648.417 609.379 646.68C608.591 644.388 609.949 642.642 610.941 640.629L612.117 638.281L612.891 637.5C612.937 633.423 613.328 630.294 611.336 626.562L610.547 626.562C609.601 624.629 608.7 623.508 607.43 621.875C606.1 620.165 606.648 616.282 606.648 614.062C607.299 613.27 607.758 612.771 608.014 611.758C608.299 610.626 608.758 609.783 609.379 608.789C610.422 607.12 611.568 605.677 611.969 603.688L612.898 598.828C611.474 597.404 612.167 596.113 611.336 594.531C610.281 592.522 610.555 591.345 610.555 589.062C611.656 587.404 611.332 586.308 611.336 584.375L612.113 583.398L611.723 581.836C610.782 579.784 611.06 581.223 610.724 579.527C610.506 578.428 610.389 576.307 609.773 575.391C608.531 573.54 604.96 571.798 603.25 570.088C601.869 568.707 601.961 568.191 601.961 566.406C603.018 564.816 602.737 564.35 602.742 562.5L603.516 561.719L602.934 560.156C601.626 558.155 601.961 557.475 601.961 555.078C599.438 552.555 598.073 550.621 594.531 549.602L593.75 548.828L592.188 548.82C590.933 547.782 589.734 546.849 588.285 546.09C586.064 544.926 584.292 543.371 582.227 542.184C579.902 540.847 582.7 542.972 580.216 540.987C578.943 539.969 578.904 540.233 577.344 540.227L576.18 539.453C574.024 539.363 571.706 539.016 569.724 540.009C568.032 540.856 569.498 540.492 567.747 540.839C566.401 541.106 567.11 540.858 565.698 541.423L564.844 541.789L563.867 541.012C562.439 542.149 561.922 541.789 560.156 541.789C558.884 540.53 557.976 541.012 556.25 541.008C553.18 543.054 546.796 541.211 542.949 541.986C541.925 542.193 541.829 542.25 540.784 541.988L540.039 541.793L539.258 542.184L537.695 541.602L536.914 542.184C535.996 542.184 535.564 542.04 534.766 542.57C533.175 543.627 532.643 543.353 530.664 543.355L528.906 546.875L526.562 551.562L525.487 551.472Z"/>
	<path fill="#BDBCBC" transform="matrix(1.75 0 0 1.75 -0.000488281 0)" d="M740.535 653.011L740.864 653.897C744.521 663.935 742.441 675.479 746.402 685.066C751.783 698.089 762.466 710.584 770.784 721.892C781.889 736.99 793.197 752.093 803.654 767.642L829.775 804.106C836.748 814.083 843.44 824.319 850.651 834.12C855.876 841.222 861.045 848.36 866.25 855.476C869.224 859.541 872.774 863.432 874.929 868.019C877.012 872.45 877.775 877.61 876.91 882.422C874.739 894.491 861.426 906.982 851.714 913.64C831.32 927.62 801.857 933.512 777.5 928.919C772.938 928.058 768.023 925.878 764.376 923.036C760.256 919.825 750.266 905.628 745.628 906.641C744.952 908.995 745.002 909.949 745.597 912.228L749.224 915.996C750.717 917.378 751.956 918.872 753.91 919.527C755.804 924.168 753.881 927.181 754.621 931.474C755.238 935.051 759.188 937.676 762.252 938.907C765.366 940.159 768.803 940.662 772.048 941.489C776.199 942.547 780.854 942.327 785.092 943.155C790.504 944.212 796.02 942.907 801.566 944.148C805.497 945.028 813.517 944.801 816.495 946.987C820.135 949.658 823.803 948.908 828.125 948.828L828.906 948.055C830.291 948.053 834.421 948.482 835.555 948.047C835.64 948.014 837.75 946.126 837.906 946.031C838.66 945.573 842.033 945.299 842.971 945.146C845.691 944.703 848.319 944.922 851.051 944.983L852.35 944.979C855.124 944.99 857.013 945.052 859.176 947.043L860.156 948.055C869.838 948.732 880.189 948.954 889.844 948.246C894.731 947.888 899.782 949.038 904.688 948.236C910.717 947.252 918.408 948.438 924.609 948.438C930.971 948.438 937.424 948.039 943.75 948.246C948.202 948.392 953.563 948.572 957.983 948.138C959.274 948.012 960.424 948.165 961.719 948.246C964.047 948.392 966.911 948.815 969.141 948.055L970.312 948.836L976.598 949.302C965.271 951.404 951.076 949.968 939.425 949.919C917.451 949.826 895.479 949.843 873.505 949.891C824.166 949.998 774.829 949.632 725.493 949.783C690.015 949.891 654.085 951.108 618.679 948.996C607.552 948.332 595.645 946.184 585.156 942.34C566.471 935.491 548.505 919.24 540.079 901.279C529.658 879.068 526.712 852.86 531.678 828.803C533.419 820.371 536.477 812.112 539.4 804.033C542.707 799.779 544.926 793.086 547.756 788.282C558.91 769.349 579.918 745.178 602.036 739.432C603.106 740.317 603.434 741.007 604.858 741.028C607.54 741.066 609.266 741.414 611.8 742.136L612.548 742.272C625.786 733.017 638.347 724.481 653.11 717.716C665.541 712.02 678.603 707.335 691.465 702.699C707.45 696.937 728.12 692.099 739.493 678.732L740.535 653.011Z"/>
	<path fill="#BDBCBC" transform="matrix(1.75 0 0 1.75 -0.000488281 0)" d="M742.894 925.343C745.288 925.576 747.503 925.563 749.539 926.989C748.353 929.649 747.381 931.347 745.107 933.203C743.101 930.967 743.039 928.195 742.894 925.343Z"/>
	<path fill="#07090B" transform="matrix(1.75 0 0 1.75 -0.000488281 0)" d="M740.535 653.011L740.864 653.897C744.521 663.935 742.441 675.479 746.402 685.066C751.783 698.089 762.466 710.584 770.784 721.892C781.889 736.99 793.197 752.093 803.654 767.642L829.775 804.106C836.748 814.083 843.44 824.319 850.651 834.12C855.876 841.222 861.045 848.36 866.25 855.476C869.224 859.541 872.774 863.432 874.929 868.019C877.012 872.45 877.775 877.61 876.91 882.422C874.739 894.491 861.426 906.982 851.714 913.64C831.32 927.62 801.857 933.512 777.5 928.919C772.938 928.058 768.023 925.878 764.376 923.036C760.256 919.825 750.266 905.628 745.628 906.641C744.952 908.995 745.002 909.949 745.597 912.228L749.224 915.996C750.346 919.751 751.002 923.028 750.991 926.953L750.147 927.678L749.539 926.989C747.503 925.563 745.288 925.576 742.894 925.343L741.797 925.283C739.947 923.234 739.706 921.501 739.458 918.844C738.825 912.041 739.143 904.943 739.093 898.094C738.999 885.238 738.976 872.382 738.866 859.527C738.38 802.773 740.06 745.855 738.774 689.146C706.573 720.075 658.799 724.79 622.589 749.49C620.95 750.608 621.373 749.875 621.056 751.562L624.255 753.882C625.431 755.106 625.692 755.959 625.854 757.599C627.763 776.909 626.511 797.421 626.547 816.9C626.604 847.782 627.23 878.798 626.611 909.667C626.549 912.741 626.317 915.196 623.828 917.28C619.193 921.161 612.605 921.677 606.844 921.016C594.753 919.63 583.081 909.802 575.683 900.756C559.727 881.247 556.234 854.604 558.929 830.222C562.839 794.856 585.515 764.053 612.548 742.272C625.786 733.017 638.347 724.481 653.11 717.716C665.541 712.02 678.603 707.335 691.465 702.699C707.45 696.937 728.12 692.099 739.493 678.732L740.535 653.011Z"/>
	<path fill="#07090B" transform="matrix(1.75 0 0 1.75 -0.000488281 0)" d="M739.6 497.574C752.392 499.022 765.816 498.172 778.718 498.341C785.777 498.433 792.964 498.369 799.84 500.186L801.172 500.552C808.139 502.397 814.89 505.089 821.106 508.764C834.812 516.868 845.307 531.001 849.104 546.484C856.068 574.887 845.799 608.527 832.342 633.668C827.186 643.301 820.856 652.326 815.127 661.626C814.6 664.04 814.151 666.262 813.02 668.487L816.992 673.051L817.322 672.313C817.878 671.201 817.628 671.592 818.747 670.798L819.716 671.015C834.769 648.654 853.088 628.915 872.266 610.086C904.619 578.321 945.137 544.132 989.453 531.385C999.165 528.592 1014.13 528.035 1023 533.274C1052.09 550.467 1071.33 583.564 1079.77 615.563C1084.14 632.129 1085.93 649.745 1087.03 666.797C1088.91 695.793 1088.38 724.983 1088.33 754.036C1088.29 777.124 1089.19 800.745 1086.13 823.659C1083.93 840.102 1079.7 860.112 1071.2 874.475C1061.02 891.692 1045.54 907.561 1025.39 912.321C1007.54 916.538 985.126 911.524 969.723 901.795C965.594 899.186 961.993 895.623 958.92 891.841C949.131 879.795 940.566 866.491 931.269 854.032C906.945 821.433 882.767 788.766 858.714 755.954C844.066 735.972 829.131 716.118 814.75 695.956C809.501 688.596 804.917 680.803 799.582 673.51C784.535 652.938 768.586 633.179 754.881 611.619C749.215 602.705 743.948 591.438 741.593 581.093L741.282 579.688C738.694 568.526 739.393 556.202 739.356 544.785C739.305 529.046 739.349 513.312 739.6 497.574Z"/>
	<path fill="#BDBCBC" transform="matrix(1.75 0 0 1.75 -0.000488281 0)" d="M809.787 672.203C811.197 668.28 812.574 664.959 815.127 661.626C814.6 664.04 814.151 666.262 813.02 668.487L816.992 673.051L817.322 672.313C817.878 671.201 817.628 671.592 818.747 670.798L819.716 671.015C818.602 673.648 816.416 676.263 814.815 678.66L809.787 672.203Z"/>
	<path fill="#BDBCBC" transform="matrix(1.75 0 0 1.75 -0.000488281 0)" d="M1020.87 539.217L1021.59 539.115L1022.54 539.844C1023.04 606.53 1022.16 673.253 1022.18 739.945C1022.18 766.921 1022.15 793.897 1022.1 820.873C1022.07 834.819 1022.66 849.069 1021.82 862.98C1021.58 867.02 1020.38 870.973 1018.63 874.609C1014.55 883.073 1003.81 891.909 994.744 894.607C986.286 897.123 975.295 895.067 967.831 890.645C961.99 887.185 957.04 881.781 955.353 875.173C958.357 850.761 958.014 826.929 957.994 802.38C957.972 776.019 957.953 749.659 957.887 723.299C957.824 698.207 957.885 673.12 957.943 648.029C957.975 633.745 958.587 619.062 957.672 604.811C957.339 599.626 956.529 593.848 954.289 589.115C949.564 579.128 942.301 575.312 932.346 571.995C950.76 563.53 969.372 554.091 988.631 547.727C999.283 544.208 1010.16 542.353 1020.87 539.217Z"/>
</svg>
